{
    "asset" : {
        "generator" : "Khronos glTF Blender I/O v1.2.75",
        "version" : "2.0"
    },
    "scene" : 0,
    "scenes" : [
        {
            "name" : "Scene",
            "nodes" : [
                0
            ]
        }
    ],
    "nodes" : [
        {
            "mesh" : 0,
            "name" : "\u30aa\u30d6\u30b8\u30a7\u30af\u30c8_14",
            "rotation" : [
                0.7071068286895752,
                0,
                0,
                0.7071067094802856
            ],
            "scale" : [
                0.0010000000474974513,
                0.0010000000474974513,
                0.0010000000474974513
            ]
        }
    ],
    "materials" : [
        {
            "doubleSided" : true,
            "emissiveFactor" : [
                0,
                0,
                0
            ],
            "name" : "Mat.3",
            "pbrMetallicRoughness" : {
                "baseColorFactor" : [
                    0.6038162708282471,
                    0.6038162708282471,
                    0.6038162708282471,
                    1
                ],
                "metallicFactor" : 0.800000011920929,
                "roughnessFactor" : 0
            }
        },
        {
            "doubleSided" : true,
            "emissiveFactor" : [
                0,
                0,
                0
            ],
            "name" : "Mat.2",
            "pbrMetallicRoughness" : {
                "baseColorFactor" : [
                    0.010022825561463833,
                    0.010022825561463833,
                    0.010022825561463833,
                    1
                ],
                "metallicFactor" : 0.30000001192092896,
                "roughnessFactor" : 0.30000001192092896
            }
        },
        {
            "doubleSided" : true,
            "emissiveFactor" : [
                0,
                0,
                0
            ],
            "name" : "Mat",
            "pbrMetallicRoughness" : {
                "baseColorFactor" : [
                    0.045289698988199234,
                    0.09649527817964554,
                    0.3423916697502136,
                    1
                ],
                "metallicFactor" : 0.30000001192092896,
                "roughnessFactor" : 0.30000001192092896
            }
        },
        {
            "doubleSided" : true,
            "emissiveFactor" : [
                0.6000000238418579,
                0.8666666746139526,
                1
            ],
            "name" : "\u7269\u7406\u30d9\u30fc\u30b9 (5)",
            "pbrMetallicRoughness" : {
                "baseColorFactor" : [
                    0.5,
                    0.5,
                    0.5,
                    1
                ],
                "metallicFactor" : 0.5,
                "roughnessFactor" : 0
            }
        },
        {
            "doubleSided" : true,
            "emissiveFactor" : [
                0,
                0,
                0
            ],
            "name" : "Mat.1",
            "pbrMetallicRoughness" : {
                "baseColorFactor" : [
                    0.010022825561463833,
                    0.010022825561463833,
                    0.010022825561463833,
                    1
                ],
                "metallicFactor" : 0.30000001192092896,
                "roughnessFactor" : 0
            }
        }
    ],
    "meshes" : [
        {
            "name" : "\u30e1\u30c3\u30b7\u30e5",
            "primitives" : [
                {
                    "attributes" : {
                        "POSITION" : 0,
                        "NORMAL" : 1,
                        "TEXCOORD_0" : 2
                    },
                    "indices" : 3,
                    "material" : 0
                },
                {
                    "attributes" : {
                        "POSITION" : 4,
                        "NORMAL" : 5,
                        "TEXCOORD_0" : 6
                    },
                    "indices" : 7,
                    "material" : 1
                },
                {
                    "attributes" : {
                        "POSITION" : 8,
                        "NORMAL" : 9,
                        "TEXCOORD_0" : 10
                    },
                    "indices" : 11,
                    "material" : 2
                },
                {
                    "attributes" : {
                        "POSITION" : 12,
                        "NORMAL" : 13,
                        "TEXCOORD_0" : 14
                    },
                    "indices" : 15,
                    "material" : 3
                },
                {
                    "attributes" : {
                        "POSITION" : 16,
                        "NORMAL" : 17,
                        "TEXCOORD_0" : 18
                    },
                    "indices" : 19,
                    "material" : 4
                }
            ]
        }
    ],
    "accessors" : [
        {
            "bufferView" : 0,
            "componentType" : 5126,
            "count" : 33083,
            "max" : [
                486.1991882324219,
                104.50138092041016,
                -721.2546997070312
            ],
            "min" : [
                -484.4847412109375,
                -104.50138092041016,
                -930.2574462890625
            ],
            "type" : "VEC3"
        },
        {
            "bufferView" : 1,
            "componentType" : 5126,
            "count" : 33083,
            "type" : "VEC3"
        },
        {
            "bufferView" : 2,
            "componentType" : 5126,
            "count" : 33083,
            "type" : "VEC2"
        },
        {
            "bufferView" : 3,
            "componentType" : 5123,
            "count" : 169446,
            "type" : "SCALAR"
        },
        {
            "bufferView" : 4,
            "componentType" : 5126,
            "count" : 16219,
            "max" : [
                872.0630493164062,
                161.4184112548828,
                5.763249442567939e-14
            ],
            "min" : [
                -875.72607421875,
                -173.82518005371094,
                -1004.6468505859375
            ],
            "type" : "VEC3"
        },
        {
            "bufferView" : 5,
            "componentType" : 5126,
            "count" : 16219,
            "type" : "VEC3"
        },
        {
            "bufferView" : 6,
            "componentType" : 5126,
            "count" : 16219,
            "type" : "VEC2"
        },
        {
            "bufferView" : 7,
            "componentType" : 5123,
            "count" : 76014,
            "type" : "SCALAR"
        },
        {
            "bufferView" : 8,
            "componentType" : 5126,
            "count" : 1498,
            "max" : [
                900,
                83.81089782714844,
                -447.9269714355469
            ],
            "min" : [
                -900,
                -83.81089782714844,
                -865.9907836914062
            ],
            "type" : "VEC3"
        },
        {
            "bufferView" : 9,
            "componentType" : 5126,
            "count" : 1498,
            "type" : "VEC3"
        },
        {
            "bufferView" : 10,
            "componentType" : 5126,
            "count" : 1498,
            "type" : "VEC2"
        },
        {
            "bufferView" : 11,
            "componentType" : 5123,
            "count" : 6132,
            "type" : "SCALAR"
        },
        {
            "bufferView" : 12,
            "componentType" : 5126,
            "count" : 22098,
            "max" : [
                877.6504516601562,
                167.0058135986328,
                -442.8983154296875
            ],
            "min" : [
                -877.650390625,
                -347.8555908203125,
                -1114.8046875
            ],
            "type" : "VEC3"
        },
        {
            "bufferView" : 13,
            "componentType" : 5126,
            "count" : 22098,
            "type" : "VEC3"
        },
        {
            "bufferView" : 14,
            "componentType" : 5126,
            "count" : 22098,
            "type" : "VEC2"
        },
        {
            "bufferView" : 15,
            "componentType" : 5123,
            "count" : 77190,
            "type" : "SCALAR"
        },
        {
            "bufferView" : 16,
            "componentType" : 5126,
            "count" : 1837,
            "max" : [
                513.6688842773438,
                -109.43412017822266,
                -786.857666015625
            ],
            "min" : [
                -513.66748046875,
                -353.4327087402344,
                -1121.1015625
            ],
            "type" : "VEC3"
        },
        {
            "bufferView" : 17,
            "componentType" : 5126,
            "count" : 1837,
            "type" : "VEC3"
        },
        {
            "bufferView" : 18,
            "componentType" : 5126,
            "count" : 1837,
            "type" : "VEC2"
        },
        {
            "bufferView" : 19,
            "componentType" : 5123,
            "count" : 8370,
            "type" : "SCALAR"
        }
    ],
    "bufferViews" : [
        {
            "buffer" : 0,
            "byteLength" : 396996,
            "byteOffset" : 0
        },
        {
            "buffer" : 0,
            "byteLength" : 396996,
            "byteOffset" : 396996
        },
        {
            "buffer" : 0,
            "byteLength" : 264664,
            "byteOffset" : 793992
        },
        {
            "buffer" : 0,
            "byteLength" : 338892,
            "byteOffset" : 1058656
        },
        {
            "buffer" : 0,
            "byteLength" : 194628,
            "byteOffset" : 1397548
        },
        {
            "buffer" : 0,
            "byteLength" : 194628,
            "byteOffset" : 1592176
        },
        {
            "buffer" : 0,
            "byteLength" : 129752,
            "byteOffset" : 1786804
        },
        {
            "buffer" : 0,
            "byteLength" : 152028,
            "byteOffset" : 1916556
        },
        {
            "buffer" : 0,
            "byteLength" : 17976,
            "byteOffset" : 2068584
        },
        {
            "buffer" : 0,
            "byteLength" : 17976,
            "byteOffset" : 2086560
        },
        {
            "buffer" : 0,
            "byteLength" : 11984,
            "byteOffset" : 2104536
        },
        {
            "buffer" : 0,
            "byteLength" : 12264,
            "byteOffset" : 2116520
        },
        {
            "buffer" : 0,
            "byteLength" : 265176,
            "byteOffset" : 2128784
        },
        {
            "buffer" : 0,
            "byteLength" : 265176,
            "byteOffset" : 2393960
        },
        {
            "buffer" : 0,
            "byteLength" : 176784,
            "byteOffset" : 2659136
        },
        {
            "buffer" : 0,
            "byteLength" : 154380,
            "byteOffset" : 2835920
        },
        {
            "buffer" : 0,
            "byteLength" : 22044,
            "byteOffset" : 2990300
        },
        {
            "buffer" : 0,
            "byteLength" : 22044,
            "byteOffset" : 3012344
        },
        {
            "buffer" : 0,
            "byteLength" : 14696,
            "byteOffset" : 3034388
        },
        {
            "buffer" : 0,
            "byteLength" : 16740,
            "byteOffset" : 3049084
        }
    ],
    "buffers" : [
        {
            "byteLength" : 3065824,
            "uri" : "data:application/octet-stream;base64,"
        }
    ]
}
